<svg id="Layer_1" data-name="Layer 1" xmlns="http://www.w3.org/2000/svg" viewBox="0 0 271.96 313.54"><defs><style>.cls-1,.cls-2,.cls-4,.cls-5,.cls-6{fill:none;stroke:#fff;stroke-miterlimit:10;}.cls-1{stroke-width:12px;}.cls-2{stroke-width:10px;}.cls-3{fill:#fff;}.cls-4{stroke-width:2px;}.cls-5{stroke-width:4px;}.cls-6{stroke-width:3px;}</style></defs><title>logo-white</title><polygon class="cls-1" points="265.95 231.34 136.38 306.62 6.41 232.04 6.01 82.2 135.58 6.93 265.55 81.5 265.95 231.34"/><ellipse class="cls-2" cx="439.19" cy="357.83" rx="44.02" ry="44.03" transform="translate(-233.42 583.42) rotate(-88.34)"/><path class="cls-3" d="M439.18,296.74,550.9,359.8,439.18,422.45,325.72,359.8l113.46-63.06m0-11.47L305.09,359.82,439.22,433.9l132.07-74.08L439.22,285.27Z" transform="translate(-302.21 -203.05)"/><line class="cls-4" x1="135.98" y1="106.71" x2="135.98" y2="6.93"/><line class="cls-4" x1="136.98" y1="306.62" x2="136.98" y2="224.91"/><line class="cls-5" x1="200.13" y1="268.47" x2="200.13" y2="43.97"/><line class="cls-5" x1="72.13" y1="269.47" x2="72.13" y2="44.97"/><line class="cls-5" x1="142.93" y1="88.04" x2="70.85" y2="44.53"/><line class="cls-6" x1="97.93" y1="134.04" x2="7.73" y2="82.23"/><line class="cls-6" x1="266.45" y1="230.84" x2="176.25" y2="179.03"/><line class="cls-6" x1="135.57" y1="229.21" x2="70.17" y2="269.47"/><line class="cls-6" x1="95.84" y1="177.4" x2="6.41" y2="230.08"/><line class="cls-6" x1="265.49" y1="80.38" x2="176.06" y2="133.05"/></svg>